<svg width="109" height="112" viewBox="0 0 109 112" fill="none" xmlns="http://www.w3.org/2000/svg">
<path d="M27.25 9.33334L13.625 28V93.3333C13.625 95.8087 14.582 98.1827 16.2854 99.933C17.9889 101.683 20.2993 102.667 22.7083 102.667H86.2917C88.7007 102.667 91.0111 101.683 92.7145 99.933C94.418 98.1827 95.375 95.8087 95.375 93.3333V28L81.75 9.33334H27.25Z" stroke="black" stroke-width="2" stroke-linecap="round" stroke-linejoin="round"/>
<path d="M72.6667 46.6667C72.6667 51.6174 70.7527 56.3653 67.3458 59.866C63.9389 63.3667 59.3181 65.3333 54.5 65.3333C49.6819 65.3333 45.0611 63.3667 41.6542 59.866C38.2473 56.3653 36.3333 51.6174 36.3333 46.6667" stroke="black" stroke-width="2" stroke-linecap="round" stroke-linejoin="round"/>
<path d="M13.625 28H95.375" stroke="black" stroke-width="2" stroke-linecap="round" stroke-linejoin="round"/>
</svg>
