<svg width="160" height="157" viewBox="0 0 160 157" fill="none" xmlns="http://www.w3.org/2000/svg">
<path d="M130.121 122.838C139.326 122.838 146.788 115.516 146.788 106.484C146.788 97.4516 139.326 90.1296 130.121 90.1296C120.916 90.1296 113.455 97.4516 113.455 106.484C113.455 115.516 120.916 122.838 130.121 122.838Z" stroke="black" stroke-width="2" stroke-linecap="round" stroke-linejoin="round"/>
<path d="M112 104.667H106.667V52.3333H133.333L153.333 71.9583V104.667H148.364" stroke="black" stroke-width="2" stroke-linecap="round" stroke-linejoin="round"/>
<path fill-rule="evenodd" clip-rule="evenodd" d="M6.66669 18.625C6.1144 18.625 5.66669 19.0727 5.66669 19.625V104.667C5.66669 105.219 6.1144 105.667 6.66669 105.667H17.4546C17.6214 105.667 17.7787 105.626 17.917 105.554C18.1989 114.912 26.0143 122.384 35.5758 122.384C45.1622 122.384 52.9935 114.873 53.2366 105.48C53.4005 105.598 53.6013 105.667 53.8182 105.667H106.667C107.219 105.667 107.667 105.219 107.667 104.667V19.625C107.667 19.0727 107.219 18.625 106.667 18.625H6.66669ZM53.2041 103.877C53.3736 103.745 53.5867 103.667 53.8182 103.667H105.667V20.625H7.66669V103.667H17.4546C17.636 103.667 17.8061 103.715 17.9528 103.799C18.5957 94.7741 26.2564 87.6759 35.5758 87.6759C44.922 87.6759 52.5998 94.815 53.2041 103.877ZM19.9091 105.03C19.9091 96.568 26.9054 89.6759 35.5758 89.6759C44.2462 89.6759 51.2424 96.568 51.2424 105.03C51.2424 113.492 44.2462 120.384 35.5758 120.384C26.9054 120.384 19.9091 113.492 19.9091 105.03Z" fill="black"/>
</svg>
