<svg width="151" height="92" viewBox="0 0 151 92" fill="none" xmlns="http://www.w3.org/2000/svg">
<path fill-rule="evenodd" clip-rule="evenodd" d="M18.7544 1.26027C18.7544 0.564244 19.3302 0 20.0405 0H108.454C109.164 0 109.74 0.564244 109.74 1.26027V28.3562H132.031C132.368 28.3562 132.692 28.4858 132.932 28.7172L150.615 45.7309C150.861 45.9678 151 46.2919 151 46.6301V74.9863C151 75.6823 150.424 76.2466 149.714 76.2466H145.32C145.283 76.2466 145.246 76.245 145.21 76.242C145.212 76.3483 145.213 76.4548 145.213 76.5616C145.213 85.1097 138.017 92 129.191 92C120.365 92 113.17 85.1097 113.17 76.5616C113.17 76.4969 113.17 76.4322 113.171 76.3676C113.171 76.3272 113.172 76.2869 113.173 76.2466L113.17 76.2466H61.7289C61.6829 76.2466 61.6374 76.2442 61.5927 76.2396C61.0891 84.348 54.1009 90.7397 45.6001 90.7397C37.1016 90.7397 30.1149 84.3515 29.6079 76.2463L29.5784 76.2466H20.0405C19.3302 76.2466 18.7544 75.6823 18.7544 74.9863V18.9837H12.8542C12.3019 18.9837 11.8542 18.536 11.8542 17.9837C11.8542 17.4314 12.3019 16.9837 12.8542 16.9837H18.7544V10.7123H1.28602C0.57577 10.7123 0 10.1481 0 9.45205C0 8.75602 0.57577 8.19178 1.28602 8.19178H18.7544V1.26027ZM21.3265 18.9837H38.514C39.0662 18.9837 39.514 18.536 39.514 17.9837C39.514 17.4314 39.0662 16.9837 38.514 16.9837H21.3265V10.7123H50.1547C50.865 10.7123 51.4407 10.1481 51.4407 9.45205C51.4407 8.75602 50.865 8.19178 50.1547 8.19178H21.3265V2.52055H107.168V29.6115L107.168 29.6164L107.168 73.726H61.7289C61.665 73.726 61.6022 73.7306 61.5409 73.7394C60.7277 65.9293 53.8817 59.863 45.6001 59.863C37.3223 59.863 30.4788 65.9237 29.6604 73.7285C29.6333 73.7269 29.606 73.726 29.5784 73.726H21.3265V18.9837ZM109.74 73.726H113.17C113.26 73.726 113.349 73.7352 113.434 73.7527C114.806 66.5533 121.356 61.1233 129.191 61.1233C137.036 61.1233 143.592 66.566 144.954 73.778C145.07 73.7442 145.193 73.726 145.32 73.726H148.428V47.1589L131.505 30.8767H109.74V73.726ZM45.6001 62.3836C38.1497 62.3836 32.1505 68.1888 32.1505 75.3014C32.1505 82.414 38.1497 88.2192 45.6001 88.2192C53.0504 88.2192 59.0497 82.414 59.0497 75.3014C59.0497 68.1888 53.0504 62.3836 45.6001 62.3836ZM129.191 63.6438C121.741 63.6438 115.742 69.449 115.742 76.5616C115.742 83.6742 121.741 89.4794 129.191 89.4794C136.642 89.4794 142.641 83.6742 142.641 76.5616C142.641 69.449 136.642 63.6438 129.191 63.6438Z" fill="black"/>
</svg>
